<?xml version="1.0" encoding="utf-8"?>
<!-- Generator: Adobe Illustrator 27.5.0, SVG Export Plug-In . SVG Version: 6.00 Build 0)  -->
<svg version="1.1" xmlns="http://www.w3.org/2000/svg" xmlns:xlink="http://www.w3.org/1999/xlink" x="0px" y="0px"
	 viewBox="0 0 500 500" style="enable-background:new 0 0 500 500;" xml:space="preserve">
<g id="BACKGROUND">
	<rect style="fill:#FFFFFF;stroke:#231F20;stroke-miterlimit:10;" width="500" height="500"/>
</g>
<g id="OBJECTS">
	<g>
		<path style="fill:#BD7B5E;" d="M183.577,302.254c-16.908-0.406-32.917,8.009-45.983,18.748
			c-11.16,9.173-20.879,20.305-27.284,33.254c-6.405,12.949-9.369,27.786-7.131,42.058c2.38,15.18,10.555,29.128,21.578,39.833
			c11.023,10.705,24.775,18.32,39.214,23.574c16.398,5.967,34.46,8.992,51.342,4.576c17.648-4.616,32.588-17.143,42.518-32.445
			c10.826-16.682,16.162-37.068,13.811-56.815s-12.615-38.638-28.563-50.52C225.506,311.425,203.642,302.737,183.577,302.254z"/>
		<path style="fill:#D3A78D;" d="M335.711,79.74c-19.444,1.896-37.461,13.006-49.306,28.542
			c-11.846,15.536-17.745,35.166-18.224,54.697c-0.24,9.802,0.866,19.782,4.68,28.814c8.918,21.123,32.46,34.135,55.38,33.536
			c22.92-0.6,44.506-13.371,58.852-31.256c11.03-13.751,18.28-30.751,19.21-48.355c0.93-17.603-4.738-35.713-16.551-48.798
			C377.94,83.835,360.021,77.369,335.711,79.74z"/>
		<g>
			<path d="M326.908,130.559c0.01,0.003,0.009,0.001,0.001-0.003c-0.001,0.001-0.001-0.001-0.002,0
				C326.905,130.557,326.905,130.558,326.908,130.559z"/>
			<path d="M403.873,295.132c-0.344-6.55-1.234-13.05-2.375-19.505c-1.043-6.319-2.236-12.614-3.74-18.841
				c-3.641-14.814-8.081-29.437-10.987-44.426c-0.927-4.56-1.721-9.146-2.786-13.677c-0.559-2.59-1.24-5.15-1.874-7.722
				c-0.547-2.338-1.012-4.694-1.533-7.037c-1.029-4.47-1.181-8.732-1.464-13.68c-0.272-3.859-0.282-7.77-1.147-11.557
				c-0.435-1.734-1.092-3.46-2.149-4.899c-0.046-0.04-0.098-0.068-0.153-0.09c-0.508-0.944-1.02-1.728-1.598-2.39
				c-0.754-0.87-1.623-1.635-2.349-2.531c-0.756-0.897-1.029-1.332-1.895-2.283c-0.022-0.021-0.044-0.041-0.065-0.062
				c-0.002-0.002-0.003-0.005-0.005-0.007c-0.322-0.505-0.695-0.974-1.062-1.447c-0.877-1.096-1.781-2.182-2.852-3.096
				c-0.211-0.159-0.432-0.431-0.695-0.483c-0.909-0.751-1.968-1.306-3.103-1.645c-1.007-0.275-1.568-0.32-2.323-0.425
				c0.121-1.143-0.282-2.348-0.86-3.544c-0.774-1.436-2.465-2.572-4.119-2.56c-0.843,0.032-1.716,0.347-2.171,1.097
				c-0.458,0.817-0.323,1.876,0.093,2.685c0.392,0.918,1.202,1.598,2.055,2.08c1.025,0.568,2.424,0.889,3.686,1.108
				c-0.058,0.101-0.121,0.203-0.194,0.31c-0.556,0.689-1.489,1.432-2.416,2.063c-0.922,0.684-1.81,1.411-2.71,2.124
				c-2.478,1.898-4.681,4.117-6.752,6.446c-1.749,2.073-3.119,4.427-4.462,6.783c-0.881,0.78-1.823,1.55-2.264,2.658
				c-0.149,0.428-0.108,0.834,0.049,1.202c-0.58,0.958-1.172,1.756-1.784,1.948c-0.002-0.003-0.004-0.007-0.006-0.01
				c-0.016-0.043-0.034-0.086-0.046-0.13c-0.013-0.036-0.022-0.078-0.029-0.115c-0.009-0.071-0.013-0.142-0.018-0.213
				c0-1.042,0.09-1.747,0.201-2.477c0.492-3.126,1.565-6.129,1.967-9.274c0.116-0.774,0.254-1.544,0.386-2.315
				c0.045-0.122,0.09-0.245,0.136-0.366c0.974-2.524,1.923-4.919,3.341-7.519c0.053-0.095,0.106-0.183,0.159-0.275
				c0.273-0.148,0.547-0.293,0.817-0.444c1.125-0.586,2.163-1.325,3.118-2.159c1.23-1.013,2.215-2.271,3.363-3.367
				c1.043-1.069,3.578-2.94,1.483-4.257c-1.853-0.883-4.997,3.494-6.153,4.762c-1.243,1.503-2.442,3.052-3.431,4.737
				c-0.374,0.212-0.739,0.438-1.077,0.705c-0.454,0.368-0.882,0.775-1.204,1.266c-0.316,0.508-0.496,1.09-0.7,1.649
				c-0.425,1.34-0.461,2.567-0.636,3.633c-0.072,0.437-0.144,0.874-0.216,1.311c-0.97,2.711-1.813,5.505-2.908,7.79
				c-0.359,0.825-1.232,2.179-1.808,2.173c-0.01-0.001-0.014-0.003-0.026-0.004c-0.01-0.005-0.012-0.006-0.019-0.009
				c-0.046-0.142-0.076-0.288-0.099-0.435c-0.018-0.23-0.017-1.587,0.031-2.287c0.125-2.183,0.309-4.371,0.083-6.554
				c-0.157-2.276-0.554-4.231-0.357-6.73c0.055-0.708,0.218-1.492,0.618-2.409c0.852-1.493,2.077-2.772,3.464-4.16
				c1.104-1.107,2.314-2.098,3.531-3.076c0.515-0.417,1.456-1.119,2.655-1.638c0.38-0.152,0.768-0.284,1.167-0.374
				c0.548-0.134,0.524-0.071,1.176-0.162c0.525-0.059,0.676-0.817,0.158-1.016c-0.541-0.225-1.585-0.354-1.696-0.42
				c-0.07-0.026-0.271-0.095-0.361-0.124c-0.704-0.3-1.269-0.831-1.922-1.219c-2.473-1.382-5.099-2.522-7.801-3.373
				c-2.534-0.61-4.168-1.505-6.481-2.374c-0.468-0.153-0.968-0.266-1.46-0.176c-0.535,0.11-1.061,0.345-1.505,0.661
				c-1.245,0.938-1.435,2.442-0.444,3.652c0.84,1.134,1.974,2.024,3.271,2.576c-1.104-0.277-2.623-0.896-3.222-1.12
				c-1.02-0.414-2.064-0.768-3.082-1.186c-0.03-0.014-0.059-0.027-0.089-0.04c-0.22-0.101-0.434-0.215-0.65-0.324
				c-0.476-0.244-0.96-0.47-1.451-0.681c-0.142-0.061-0.308-0.135-0.492-0.218c0.147-0.506,0.195-1.051,0.233-1.563
				c0.15-2.408-0.686-4.723-1.127-7.063c-0.702-3.254-1.24-6.539-1.911-9.8c-0.148-0.72-0.148-1.044-0.197-1.48
				c-0.062-1.427-0.167-2.852-0.272-4.273c-0.044-0.931-0.098-1.864-0.188-2.792c-0.012-0.918-0.032-1.835-0.074-2.751
				c-0.09-3.504-0.536-6.98-1.1-10.436c-0.345-2.245-0.681-4.496-1.232-6.702c-1.123-4.43-2.44-8.848-4.505-12.939
				c-2.894-5.673-7.163-10.484-11.579-15.017c-5.819-5.975-13.86-17.418-32.467-23.841c-3.015-1.041-6.145-1.766-9.334-2.002
				c-2.461-0.129-4.936,0.122-7.379,0.412c-2.251,0.34-4.446,0.985-6.63,1.614c-1.881,0.521-3.7,1.229-5.5,1.981
				c-2.472,1.022-4.965,2.027-7.291,3.356c-3.008,1.756-5.938,3.655-8.754,5.705c-3.004,2.367-5.901,4.887-8.534,7.663
				c-6.079,6.338-11.863,13.052-16.237,20.703c-8.49,14.388-12.454,30.918-14.651,47.347c-1.632,11.633-2.896,23.141-5.928,34.761
				c-1.974,7.4-4.678,13.904-8.109,20.645c-2.734,5.505-6.135,10.627-9.608,15.686c-4.06,6.216-12.768,16.417-11.596,24.01
				c0.271,1.495,1.006,2.98,2.07,4.064c0.617,0.536,1.299,1.007,2.035,1.365c-0.432,1.03-0.714,2.154-0.87,3.341
				c-2.264,0.176-4.464,0.989-6.202,2.5c-2.103,2.158-3.147,5.077-4.111,7.874c-0.763,2.975-1.347,6.017-1.531,9.086
				c-0.353,5.712,0.169,11.429,0.532,17.128c0.33,5.679,0.977,11.333,1.81,16.959c0.77,5.664,1.963,11.253,3.377,16.79
				c1.454,5.91,3.029,11.805,5.19,17.501c2.484,6.716,5.401,13.259,8.742,19.593c2.845,5.511,5.822,10.962,8.201,16.697
				c1.21,3.108,3.089,7.814,3.958,11.614c0.544,2.346,0.905,4.05,1.075,6.314c0.076,2.737-0.29,5.471-0.597,8.186
				c-0.492,4.502-1.83,9.667-2.971,14.536c-1.251,5.292-2.405,10.631-2.821,16.062c-0.645,12.401,2.407,23.852,4.328,36.104
				c0.957,6.101,3.434,23.688,4.116,28.825c0,0,1.013,8.247,1.411,12.379c0-0.004,0.001-0.008,0.001-0.011c0,0.001,0,0.003,0,0.004
				c0.026-0.177,0.053-0.355,0.079-0.532c-0.013-0.069-0.024-0.138-0.037-0.208c1.076-20.42-8.895-60.852-8.699-73.899
				c0.102-6.752,1.553-12.88,3.106-19.638c0.962-4.16,2.023-8.311,2.542-12.556c0.365-2.898,0.697-5.811,0.73-8.734
				c-0.118-2.442-0.614-4.845-1.187-7.216c-0.678-2.774-1.606-5.476-2.666-8.126c-1.02-2.809-2.226-5.539-3.465-8.257
				c-3.402-7.07-7.338-13.879-10.532-21.051c-1.993-4.395-3.899-9.334-5.577-14.272c-1.361-4.105-2.448-8.296-3.489-12.492
				c-1.341-5.407-2.604-10.836-3.366-16.359c-0.878-5.811-1.564-11.257-1.935-17.379c-0.448-6.309-1.022-13.861-0.52-19.546
				c0.496-3.641,1.221-7.692,2.645-10.582c0.779-1.809,1.478-3.134,2.883-4.308c1.351-1.027,3.06-1.666,4.868-1.856
				c-0.427,6.702,2.76,15.005,5.912,19.787c1.156,1.731,2.408,3.409,3.944,4.824c2.626,2.729,5.62,5.043,8.64,7.314
				c2.792,2.183,6.889,5.377,10.232,7.757c2.388,1.677,4.428,3.148,6.479,4.827c1.042,0.83,2.078,1.669,3.182,2.416
				c0.945,0.609,2.029,1.466,3.202,0.957c1.247-0.48,0.831-2.083,0.751-3.125c-0.174-1.243-0.348-2.491-0.631-3.714
				c-1.124-5.205-3.265-10.128-5.806-14.788c-1.693-2.97-3.492-5.894-5.545-8.63c-1.205-1.589-2.683-2.94-4.126-4.307
				c-3.079-2.75-6.395-5.217-9.691-7.698c-2.001-1.393-4.009-2.789-6.14-3.979c-1.964-1.018-4.05-1.804-6.18-2.395
				c-0.97-0.257-1.975-0.391-2.981-0.407c0.137-1.04,0.387-2.034,0.775-2.912c0.827,0.243,1.687,0.386,2.539,0.502
				c3.723,0.26,7.481-0.488,10.94-1.854c2.714-1.183,5.333-2.587,7.841-4.16c1.841-1.133,3.735-2.215,5.302-3.724
				c2.009-1.816,3.846-3.901,4.889-6.431c0.366-0.778,0.717-1.565,1.02-2.37c0.304-0.817,0.623-1.697,0.395-2.576
				c-0.059-0.339-0.239-0.771-0.577-0.911c-0.096-0.199-0.317-0.344-0.549-0.267c-0.377,0.164-0.528,0.625-0.805,0.912
				c-0.922,1.19-1.813,2.416-2.88,3.482c-3.749,3.531-8.068,6.3-12.903,8.69c-2.683,1.309-5.322,2.384-8.406,3.365
				c-1.741,0.552-3.5,1.057-5.143,1.872c-0.982,0.443-1.737,1.276-2.276,2.198c-2.779-1.247-3.982-4.203-3.665-7.048
				c0.151-1.32,0.929-3.865,1.656-5.512c1.342-2.741,2.91-5.365,4.617-7.893c5.736-8.248,11.729-16.397,16.03-25.518
				c2.847-5.784,5.247-11.802,6.952-18.023c2.972-11.012,4.42-22.862,5.894-33.684c1.135-8.432,2.581-16.84,4.918-25.031
				c1.442-5.272,3.366-10.398,5.491-15.43c1.41-2.794,3.617-7.167,5.562-10.296c4.471-7.255,9.986-13.426,16.046-19.694
				c2.395-2.352,4.933-4.557,7.578-6.624c1.984-1.365,5.465-3.742,8.044-5.202c1.549-0.981,3.933-1.956,5.065-2.478
				c2.619-1.074,5.218-2.221,7.956-2.965c2.13-0.603,4.267-1.229,6.46-1.554c1.313-0.14,4.464-0.464,6.378-0.403
				c3.1,0.077,6.257,0.94,9.532,1.945c10.801,3.315,17.579,9.488,21.283,12.821c3.774,3.395,7.308,7.047,10.774,10.753
				c4.561,4.738,8.517,9.105,11.485,14.951c1.602,3.071,2.586,6.347,3.642,9.954c0.844,2.915,1.41,5.898,1.848,8.899
				c0.385,2.257,0.69,4.322,0.898,6.507c-0.414-1.391-0.861-2.772-1.445-4.103c-0.994-2.308-2.031-4.611-3.304-6.78
				c-1.303-2.109-2.842-4.062-4.166-6.159c-2.01-2.951-4.257-5.736-6.551-8.47c-2.607-2.774-5.427-5.395-8.602-7.508
				c-6.539-4.044-14.751-4.072-22.067-2.501c-3.312,0.779-6.487,2.028-9.647,3.27c-4.809,1.855-9.351,4.295-13.876,6.747
				c-5.47,2.924-10.901,5.92-16.13,9.261c-3.647,2.237-7.23,4.577-10.528,7.311c-3.061,2.487-5.892,5.248-8.564,8.147
				c-1.98,2.073-3.797,4.29-5.453,6.63c-2.975,4.09-5.81,8.307-8.096,12.826c-1.43,2.899-2.417,6.032-2.913,9.226
				c-0.674,4.756-0.553,9.58-0.626,14.372c-0.01,4.214-0.116,8.613-0.784,12.354c-1.142,7.832-3.379,15.452-4.67,23.258
				c-0.451,2.943-1.008,5.889-1.091,8.871c-0.224,10.245,2.398,20.306,6.154,29.771c2.028,5.217,5.171,10.408,7.066,15.21
				c2.545,6.102,4.03,12.94,4.726,19.067c0.237,2.104,0.27,4.224,0.326,6.339c0.059,2.424,0.079,4.852-0.122,7.27
				c-0.025,0.185-0.05,0.37-0.075,0.555c-0.076,0.479-0.181,0.955-0.293,1.427c-0.073,0.293-0.165,0.579-0.275,0.859
				c-0.102,0.248-0.225,0.484-0.377,0.706c-0.177,0.255-0.358,0.506-0.543,0.756c-0.766,0.964-0.864,0.746-1.444,0.926
				c-0.139,0.003-0.279,0.006-0.418,0.009c-0.115-0.021-0.23-0.044-0.341-0.078c-0.22-1.861-0.413-3.729-0.836-5.556
				c-0.817-3.769-1.79-7.512-3.12-11.135c-1.337-3.629-2.925-7.179-4.97-10.468c-0.882-1.216-2.932-5.16-4.419-2.51
				c-1.258,4.927,3.18,15.212,5.319,19.875c0.832,1.838,1.731,3.643,2.701,5.413c1.059,1.85,2.158,3.877,4.06,4.972
				c0.072,0.035,0.145,0.069,0.219,0.104c0.093,0.886,0.175,1.789,0.252,2.723c0.398,4.914,0.131,9.856-0.21,14.766
				c-0.488,7.983-1.863,15.461-3.617,23.477c-2.008,8.641-4.451,17.181-6.875,25.714c-2.338,8.243-4.196,16.662-4.895,25.213
				c-0.328,4.572,0.018,9.173,0.611,13.711c0.576,3.963,1.414,7.883,2.535,11.728c1.093,3.602,2.482,7.105,3.872,10.6
				c2.307,5.57,4.827,11.051,7.511,16.45c1.277,2.494,2.392,5.097,3.957,7.426c0.485,0.71,1.191,1.447,2.117,1.245
				c0.663-0.34,0.718-1.265,0.832-1.927c0.179-1.912-0.103-3.834-0.234-5.742c-0.308-3.543-0.841-7.059-1.401-10.57
				c-1.008-6.171-2.783-12.186-3.844-18.349c-0.765-4.132-1.013-8.12-1.075-12.6c0.055-3.996,0.403-7.98,0.834-11.951
				c0.641-4.04,1.9-9.663,3.218-14.183c1.56-5.063,3.088-9.936,5.089-14.402c4.284-9.483,9.617-18.459,13.689-28.041
				c3.361-7.463,5.425-15.474,6.514-23.574c0.391-3.963,0.715-7.936,0.926-11.913c0.211-5.897,0.449-11.797,1.023-17.673
				c0.137-1.694,0.311-3.39,0.496-5.086c1.885-2.268,2.688-5.279,3.441-8.085c1.479-5.876,1.873-11.992,1.741-18.035
				c-0.071-5.64-0.698-11.327-2.717-16.627c-0.834-2.516-2.205-4.79-3.541-7.064c-1.946-3.128-4.082-6.145-6.452-8.967
				c-2.22-2.753-4.471-5.11-6.249-7.85c-1.155-2.027-2.029-3.713-2.651-5.746c-0.571-2.39-0.753-4.23-0.59-6.733
				c1.575-24.203,36.894-22.98,50.271-59.014c1.782-4.801,3.056-9.769,4.559-14.66c0.634-2.137,1.328-4.256,2.115-6.342
				c1.052-2.888,2.394-5.646,4.649-7.897c2.745-2.542,6.321-4.149,10.009-4.708c2.463-0.328,6.086,0.174,8.731,1.897
				c2.109,1.468,4.035,3.225,5.476,5.365c2.554,3.778,4.67,7.853,6.367,12.085c2.67,6.775,4.882,13.717,6.925,20.705
				c-0.04,0.075-0.068,0.159-0.066,0.255c-0.112,1.03-0.501,3.629-0.794,4.527c-0.594-1.345-2.584-0.976-3.803-0.718
				c-2.267,0.383-4.445,1.141-6.573,1.995c-2.249,0.838-4.336,2.126-5.975,3.891c-0.545,0.638-1.324,1.385-1.238,2.292
				c0.034,0.387,0.291,0.868,0.719,0.905c0.642,0.08,1.267-0.209,1.848-0.449c0.831-0.346,1.402-0.661,1.993-0.864
				c2.801-0.927,5.71-1.566,8.415-2.76c0.958-0.451,1.883-0.969,2.834-1.432c0.229-0.116,0.462-0.229,0.693-0.347
				c0,0.001,0,0.001-0.001,0.002c-0.454,1.354-1.006,2.697-1.03,4.147c0.003,0.036-0.002,0.162-0.007,0.278
				c-0.937,0.019-2.811-0.213-4.039-0.03c-2.663,0.252-5.256,1.02-7.626,2.258c-1.809,0.828-3.577,1.82-4.924,3.314
				c-1.43,1.437-2.785,4.667-2.379,6.813c-0.264-0.209-0.551-0.41-0.873-0.592c-3.532-1.906-7.743-1.58-11.613-1.267
				c-2.829,0.332-5.631,0.855-8.45,1.259c-1.971,0.343-3.922,0.796-5.899,1.111c-5.566,1.055-6.476,1.457-11.002-0.736
				c-1.717-0.837-3.463-1.614-5.244-2.307c-0.876-0.31-1.706-0.814-2.64-0.915c-0.913-0.127-1.159,0.955-1.266,1.658
				c-0.146,0.926-0.253,1.895,0.091,2.792c0.639,1.781,2.317,2.541,3.981,3.128c1.789,0.568,3.577,1.14,5.362,1.721
				c1.875,0.557,2.949,0.939,3.639,2.311c0.634,1.201,0.903,2.436,1.375,3.999c0.526,1.651,1.187,3.276,2.074,4.767
				c0.719,1.174,1.544,2.279,2.367,3.382c1.13,1.564,2.451,3.033,4.111,4.044c1.575,0.943,3.505,0.862,5.21,0.34
				c1.124-0.333,1.457-0.554,2.399-0.918c0.828-0.341,1.669-0.66,2.442-1.118c2.068-1.274,4.153-2.582,5.905-4.28
				c1.727-1.625,3.371-3.335,4.999-5.059c0.811-0.861,1.6-1.747,2.476-2.542c0.693-0.581,1.152-0.934,1.843-1.227
				c1.777-0.776,3.16,0.174,3.61,1.667c0.595,1.956,0.253,4.123,1.264,6.316c0.367,0.968,0.937,1.854,1.658,2.595
				c0.664,0.698,1.46,1.25,2.167,1.897c0.226,0.2,0.444,0.412,0.666,0.619c-0.637,1.858-1.25,3.272-2.26,5.117
				c-0.683,1.227-1.884,2.527-2.353,3.274c-0.857,1.191-1.621,2.451-2.523,3.612c-0.449,0.596-1.785,2.151-2.619,3.088
				c-2.516,2.811-3.562,6.509-4.451,10.091c-0.504,1.921-1.085,3.819-1.72,5.7c-0.718,2.34-1.644,4.35-3.13,6.011
				c-1.938,2.108-4.896,3.49-7.393,3.878c-0.741,0.06-1.507,0.024-2.276-0.068c-1.248-0.229-2.475-0.563-3.723-0.799
				c-1.884-0.347-3.758-0.738-5.631-1.136c-1.05-1.327-2.215-2.574-3.355-3.811c-3.744-3.818-7.788-7.351-12.012-10.63
				c-1.982-1.567-3.95-3.167-6.07-4.545c-0.805-0.449-1.743-1.228-2.63-0.555c-0.724,0.604-0.03,1.589,0.212,2.282
				c0.657,1.504,1.547,2.89,2.523,4.205c3.054,3.897,6.476,8.959,11.416,11.474c2.207,1.198,4.66,1.715,7.108,2.162
				c0.677,0.131,1.352,0.275,2.027,0.42c1.269,1.683,2.259,3.417,2.898,5.439c1.301,3.678,2.376,5.953,5.853,8.037
				c3.082,1.669,6.294,3.091,9.619,4.202c2.359,0.851,4.828,1.278,7.326,1.441c4.818,0.423,9.48-0.1,13.783,1.218
				c2.185,0.66,3.965,1.581,6.096,3.005c1.231,0.793,1.777,1.176,2.899,2.201c2.011,1.848,3.851,3.867,5.57,5.988
				c1.766,1.994,3.45,4.059,5.223,6.047c1.639,1.821,3.298,3.627,5.001,5.392c0.141,0.287,0.283,0.574,0.425,0.86
				c1.682,3.341,3.494,6.614,5.236,9.923c1.977,3.722,4.062,7.423,6.726,10.703c1.481,1.853,3.172,3.579,5.333,4.625
				c1.483,0.78,3.122,1.831,4.863,1.388c0.271-0.093,0.559-0.26,0.769-0.483c0.012-0.011,0.022-0.022,0.033-0.034
				c0.141-0.16,0.242-0.348,0.265-0.561c0.01-0.279-0.181-0.487-0.416-0.566c-0.071-0.16-0.142-0.32-0.213-0.48
				c-0.566-1.263-1.114-2.534-1.718-3.779c-1.773-3.915-4.331-7.419-7.397-10.421c-2.64-2.705-5.695-4.952-8.436-7.55
				c-1.548-1.435-3.046-2.922-4.514-4.439c-0.571-1.179-1.091-2.329-1.521-3.425c-0.4-1.098-0.46-1.589-0.236-2.03
				c0.007-0.007,0.015-0.014,0.024-0.022c0.069-0.043,0.212-0.132,0.289-0.148c1.636-0.416,5.563,1.592,8.299,3.058
				c2.847,1.567,5.667,3.184,8.548,4.689c2.633,1.336,5.508,3.293,7.438,4.802c4.085,3.288,7.274,7.046,9.989,11.168
				c0.247,0.358,0.49,0.721,0.728,1.087c0.043,2.021,0.119,4.025,0.257,5.992c0.359,5.626,0.68,11.254,0.742,16.893
				c0.083,5.36-0.081,10.735,0.47,16.076c0.25,2.832,0.769,5.643,1.67,8.343c0.108,0.326,0.219,0.651,0.332,0.975
				c-0.197,3.566-0.362,7.134-0.571,10.699c-0.159,3.21-0.319,6.445,0.13,9.638c0.307,2.165,0.947,4.276,1.765,6.301
				c0.228,0.498,0.382,1.063,0.839,1.4c1.029,0.483,1.339-0.904,1.533-1.648c0.759-2.894,1.134-5.885,1.24-8.872
				c0.083-1.816-0.069-3.63-0.323-5.428c-0.158-1.275-0.5-3.442-0.946-5.201c-0.623-2.497-1.601-4.883-2.45-7.308
				c0.091-1.866,0.186-3.732,0.292-5.598c0.176-2.741,0.328-5.485,0.592-8.219c0.307-3.187,0.766-6.364,0.935-9.562
				c0.111-3.759,0.12-7.543-0.342-11.281c-0.566-3.419-1.525-6.794-2.992-9.939c-0.61-1.17-1.26-2.322-1.949-3.451
				c-0.11-4.587-0.056-9.177-0.089-13.765c-0.109-3.944-0.374-7.89-0.932-11.797c-0.379-2.495-0.941-4.956-1.446-7.427
				c-0.943-4.395-2.152-8.762-4.061-12.844c-0.981-2.303-2.157-4.559-3.864-6.413c-1.296-1.327-2.735-2.514-3.847-4.012
				c-1.373-1.756-3.367-5.216-5.041-7.443c-1.46-2.079-3.332-3.811-4.976-5.737c-1.603-1.871-2.962-3.836-4.47-6.148
				c-1.438-2.281-3.242-5.376-4.134-7.366c-0.873-1.992-1.58-4.856-1.77-6.469c-0.353-3.867-0.567-7.75-0.617-11.633
				c-0.09-2.516-0.201-5.033-0.168-7.551c0.011-1.264,0.055-2.528,0.134-3.79c0.009-0.141,0.019-0.283,0.029-0.424
				c0.061-0.09,0.099-0.199,0.097-0.328c-0.006-1.689,0.027-3.12,0.806-3.841c0.018-0.016,0.037-0.032,0.055-0.048
				c0.013,0.013,0.028,0.03,0.045,0.049c0.018,0.03,0.046,0.076,0.077,0.122c0.146,0.368,0.344,0.97,0.324,1.672
				c0.024,0.901-0.556,4.087,0.617,4.283c0.564,0.049,0.723-0.643,0.909-1.048c0.292-0.728,0.536-1.473,0.774-2.22
				c0.278-0.902,0.804-2.266,1.02-2.734c0.311-0.7,0.694-1.371,0.923-2.104c0.103-0.358,0.188-0.739,0.112-1.111
				c-0.016-0.089-0.033-0.178-0.049-0.268c0.002,0.039-0.004,0.046-0.009-0.044c0-0.004-0.001-0.009-0.001-0.013
				c0.003,0.019,0.006,0.038,0.01,0.057c-0.001-0.02-0.005-0.047-0.011-0.075c0,0.006,0.001,0.011,0.001,0.017
				c-0.002-0.012-0.005-0.025-0.006-0.037c0.002,0.007,0.003,0.014,0.005,0.02c-0.083-1.253-0.305-2.504-0.826-3.654
				c-0.687-1.884-2.324-2.317-3.643-2.916c-0.992-0.455-1.823-1.181-2.501-2.029c0.11,0.16-0.232-0.33-0.309-0.491
				c-0.172-0.332-0.148-0.32-0.184-0.627c0.052-0.783,1.011-1.452,1.817-1.562c1.032-0.012,2.783,1.075,4.693,1.775
				c1.247,0.493,2.56,0.786,3.824,1.232c2.063,0.734,3.472,1.388,5.567,2.391c0.937,0.426,1.711,1.13,2.648,1.549
				c0.096,0.043,0.183,0.078,0.268,0.111c-0.626,0.211-1.26,0.492-1.807,0.841c-1.877,1.212-3.555,2.728-5.151,4.286
				c-1.318,1.343-2.637,2.739-3.562,4.39c-0.414,0.923-0.661,1.926-0.743,2.935c-0.235,1.957,0.248,5.429,0.393,7.888
				c0.116,2.039-0.143,4.073-0.158,6.111c0.01,0.817-0.087,1.69,0.276,2.447c0.303,0.483,1.002,0.592,1.494,0.35
				c0.619-0.307,1.058-0.886,1.461-1.43c0.557-0.936,1.022-1.916,1.436-2.919c-0.462,1.879-0.997,3.741-1.223,5.669
				c-0.085,1.018-0.333,2.112,0.031,3.096c0.469,1.146,1.813,0.568,2.413-0.154c0.358-0.405,0.679-0.838,0.981-1.285
				c0.336,0.304,0.737,0.548,1.12,0.71c2.963,1.171,6.624-0.615,9.099-2.256c3.096-2.112,5.601-5.336,8.52-7.159
				c1.626-0.971,2.839-0.204,4.171,1.118c0.547,0.575,0.808,0.817,1.172,1.462c0.293,0.752,0.326,1.074,0.361,1.668
				c0.023,0.332-0.087,0.566-0.291,1.125c0.072-0.19,0.041-0.084-0.02,0.045c-0.052,0.191-0.214,0.511-0.477,0.965
				c-0.583,0.962-1.291,1.618-2.181,2.695c-1.777,2.011-3.595,3.99-5.17,6.169c-1.201,1.686-2.52,3.4-3,5.451
				c-0.914,5.117,0.64,10.278,2.692,14.934c1.486,3.338,3.155,6.611,5.208,9.638c1.559,2.331,3.272,4.555,4.857,6.867
				c1.132,1.63,2.062,3.412,3.141,5.062c0.253,0.222,0.702,0.071,0.779-0.258c0.079-0.349-0.222-0.636-0.352-0.938
				c-0.342-0.621-0.693-1.237-1.049-1.849c-1.583-2.792-3.559-5.323-5.398-7.945c-2.423-3.348-4.408-6.989-6.084-10.762
				c-1.929-4.211-3.525-9.537-2.753-13.971c0.276-1.664,1.091-2.821,2.177-4.376c2.181-3.25,5.761-6.695,7.735-9.496
				c0.652-1.026,1.242-2.224,1.218-3.464c-0.086-0.718-0.234-1.454-0.574-2.098c-0.389-0.661-0.918-1.227-1.471-1.755
				c-1.936-1.882-3.674-2.307-5.949-0.648c-3.592,2.669-6.127,6.087-10.012,7.942c-1.415,0.777-3.84,1.438-5.163,1.163
				c-0.645-0.06-1.376-0.503-1.765-0.889c0.465-0.77,0.891-1.566,1.336-2.343c0.162-0.28,0.326-0.559,0.489-0.838
				c0.147-0.128,0.294-0.257,0.438-0.388c1.809-1.62,3.602-3.263,5.286-5.013c1.668-1.795,3.502-3.424,5.191-5.198
				c1.532-1.627,3.619-3.111,5.326-3.83c1.322-0.489,2.593-0.405,3.772-0.204c0.916,0.151,2.456,0.581,2.803,0.768
				c1.617,0.831,2.408,1.544,3.675,2.807c0.707,0.825,1.361,1.695,2.099,2.493c0.619,0.7,1.333,1.309,1.95,2.01
				c0.519,0.58,0.726,0.905,1.235,1.739c0.266,0.392,0.401,0.892,0.721,1.237c1.46,2.532,1.893,5.263,2.109,8.013
				c0.191,2.437,0.258,4.881,0.379,7.322c0.147,3.43,0.251,6.867,0.691,10.275c0.406,2.887,1.094,5.726,1.699,8.575
				c0.977,4.302,2.238,8.534,3.189,12.844c1.269,5.558,2.361,11.154,3.651,16.708c2.225,9.692,4.889,19.275,7.316,28.917
				c2.511,9.436,4.464,19.009,5.904,28.667c1.17,7.003,1.955,13.693,2.195,21.136c0.095,3.729,0.165,7.463,0.063,11.193
				c-0.153,3.163-0.393,6.322-0.71,9.473c-0.644,6.457-1.198,12.729-2.07,18.604c-1.021,5.824-1.836,13.856-5.378,16.897
				c-4.984,3.428-11.084,1.136-15.384-2.508c-0.034-0.029-0.065-0.056-0.098-0.085c0.238-1.603,0.374-3.22,0.371-4.848
				c0.006-3.365-0.39-6.889-2.116-9.844c-0.741-1.148-1.71-2.138-2.824-2.926c-0.937-0.748-2.279-1.379-3.423-0.706
				c-1.148,1.04-0.531,2.897-0.411,4.242c0.72,4.815,2.726,9.424,5.786,13.212c0.417,0.467,0.857,0.916,1.314,1.345
				c-0.026,0.164-0.052,0.329-0.08,0.489c-0.993,4.878-2.713,9.665-2.623,14.703c0.242,5.565,2.139,10.905,4.171,16.04
				c2.354,5.675,4.825,11.31,7.738,16.724c7.824,14.54,19.396,28.887,4.128,19.011c-1.219-0.788-3.556-2.392-4.751-3.216
				c-0.043-0.026-0.087-0.055-0.13-0.084c-0.021-0.023-0.041-0.047-0.062-0.07c-0.968-0.699-1.895-1.396-2.968-2.26
				c-2.382-1.996-4.634-4.137-6.881-6.282c-4.827-4.5-9.332-9.327-13.473-14.466c-0.257-0.314-8.745-11.464-11.683-16.096
				c-2.456-3.792-4.503-7.827-6.601-11.822c-0.753-1.444-1.549-2.993-2.302-4.52c5.036-6.702,7.764-14.83,9.597-22.942
				c0.924-4.465,1.691-8.962,2.042-13.512c0.441-6.961,0.221-13.968-0.637-20.89c-0.63-5.602-1.905-11.12-3.757-16.444
				c-1.131-3.094-2.13-6.352-4.189-8.975c-1.248-1.539-2.793-2.992-4.664-3.711c-2.242-0.571-4.37,0.924-5.532,2.753
				c-2.842,4.364-3.077,9.767-3.672,14.794c-0.831,7.897-1.122,15.836-1.182,23.773c-0.37,15.721,3.344,31.398,10.146,45.545
				c-0.489,0.596-0.998,1.18-1.532,1.745c-2.596,2.449-5.09,4.355-8.278,6.219c-3.503,1.979-7.961,3.16-11.773,3.507
				c-2.517,0.28-5.063,0.464-7.594,0.285c-1.953-0.135-4.064-0.482-6.206-0.978c0.323-0.92,0.634-1.845,0.932-2.774
				c2.99-10.27,4.992-20.883,5.219-31.596c0.041-4.364,0.022-8.734-0.401-13.081c-0.488-4.781-1.429-9.5-2.349-14.214
				c-3.042-14.291-8.55-28.134-16.679-40.302c-3.724-5.268-7.597-10.666-12.919-14.435c-2.307-1.538-4.771-2.863-7.363-3.854
				c-2.155-0.831-4.43-1.409-6.755-1.334c-2.976,0.072-5.869,1.093-8.506,2.419c-1.877,0.98-3.453,2.442-4.928,3.941
				c-3.371,3.332-4.992,7.939-6.71,12.256c-1.95,4.665-2.617,9.741-2.974,14.75c-0.782,10.42,1.283,20.798,3.908,30.837
				c2.01,6.744,5.211,13.048,8.874,19.035c3.496,6.108,8.028,11.511,12.615,16.819c2.742,3.04,5.477,6.115,8.59,8.784
				c1.332,1.102,2.768,2.069,4.2,3.035c2.335,1.477,4.615,3.057,7.061,4.346c3.551,1.868,7.329,3.258,11.095,4.624
				c1.744,0.612,3.512,1.163,5.301,1.624c-0.333,0.928-0.676,1.842-1.038,2.73c-3.516,8.951-8.423,19.659-14.197,27.274
				c-5.363,7.074-17.559,17.302-24.057,15.052c-1.875-0.65-4.215-3.244-5.548-5.275c-2.662-4.328-4.876-8.917-7.245-13.409
				c-3.427-6.445-6.739-12.949-10.119-19.419c-4.06-7.702-7.82-15.651-13.214-22.538c-2.423-3.007-5.108-5.835-8.087-8.296
				c-1.088-0.875-2.849-1.916-3.824-0.318c-1.274,1.985-1.664,4.403-2.109,6.683c-1.154,6.48-1.465,13.073-1.755,19.639
				c-0.176,4.64-0.429,9.278-0.526,13.921c-0.205,8.755,0.078,17.524-0.58,26.264c-0.483,8.466-1.77,16.145-4.115,24.442
				c-1.708,6.546-3.561,13.056-4.817,19.71c-1.619,7.931-3.489,20.642,2.529-5.446c1.243-5.39,2.801-10.703,4.178-16.06
				c0.884-3.474,1.681-6.975,2.25-10.515c0.776-4.928,1.174-9.904,1.433-14.883c0.52-10.27,0.002-20.565,0.525-30.838
				c0.253-6.47,0.377-12.948,1.003-19.396c0.184-2.709,0.564-4.881,1.083-7.698c0.505-1.972,0.783-3.753,1.819-5.25
				c0.073-0.073,0.193-0.196,0.262-0.27c0.022-0.013,0.045-0.026,0.067-0.039c0.059-0.009,0.106-0.019,0.117-0.028
				c1.158,0.219,1.88,1.06,2.969,1.966c3.032,2.826,5.84,5.858,8.013,8.923c3.982,5.451,6.944,11.537,10.116,17.473
				c3.847,7.418,7.658,14.856,11.561,22.245c1.775,3.415,3.518,6.847,5.363,10.225c1.618,3.059,3.502,6.075,6.264,8.232
				c2.592,1.906,5.399,2.052,7.645,1.163c12.961-5.131,19.868-15.576,20.021-15.777c2.989-3.935,5.464-8.246,7.721-12.635
				c2.822-5.709,5.471-11.53,7.645-17.521c2.183,0.503,4.397,0.864,6.64,1.029c2.64,0.179,5.293-0.03,7.916-0.341
				c3.284-0.349,6.528-1.088,9.549-2.446c2.746-1.119,5.182-2.824,7.518-4.625c1.72-1.32,3.4-2.725,4.789-4.397
				c0.576,1.161,1.171,2.312,1.788,3.451c1.812,3.452,3.594,6.924,5.612,10.261c3.624,5.995,16.161,21.985,19.348,25.45
				c3.019,3.244,6.254,6.275,9.479,9.31c3.146,3.031,6.553,5.773,10.204,8.172c24.563,16.144,6.192-9.219,2.018-16.564
				c-2.508-4.412-4.719-8.987-6.75-13.636c-2.739-6.248-5.872-13.546-6.38-20.307c-0.153-3.826,0.563-6.795,1.478-10.517
				c0.409-1.464,0.765-2.944,1.042-4.438c2.066,1.695,4.456,2.997,7.034,3.712c2.39,0.751,5.036,0.585,7.359-0.326
				c0.831-0.34,1.648-0.746,2.35-1.313c0.745-0.635,1.357-1.422,1.877-2.248c1.58-2.726,2.29-5.853,2.967-8.902
				c0.648-3.298,1.232-6.61,1.67-9.943c0.937-7.757,1.818-15.531,2.285-23.332C404.268,305.154,404.117,300.133,403.873,295.132z
				 M347.048,136.649c1.492-1.868,4.197-4.975,5.148-4.972c1.031,0.334-0.429,1.495-1.585,2.625c-1.33,1.243-2.47,2.682-3.912,3.808
				c-0.439,0.352-0.97,0.746-1.614,1.133C345.708,138.331,346.353,137.505,347.048,136.649z M341.533,143.215
				c0.04-0.085,0.166-0.353,0.223-0.415c0.029-0.047,0.086-0.124,0.099-0.143c0.016-0.02,0.032-0.04,0.048-0.06
				c0.028-0.034,0.058-0.065,0.086-0.098c-0.32,0.659-0.617,1.312-0.897,1.96C341.202,144.07,341.342,143.663,341.533,143.215z
				 M151.863,212.956c0.635-0.732,0.883-0.634,1.872-1.148c1.339-0.651,3.405-1.161,5.195-1.794
				c5.987-2.052,11.688-4.948,16.78-8.716c1.919-1.473,3.832-3.013,5.302-4.952c0.563-0.717,1.109-1.447,1.651-2.181
				c0.267,0.686-0.449,2.497-1.085,3.82c-1.016,2.4-2.23,4.051-4,5.741c-2.174,2.21-4.366,3.438-7.097,5.116
				c-3.202,1.887-6.21,3.582-9.587,4.454c-1.857,0.558-3.156,0.763-5.006,0.849c-1.784,0.162-2.961,0.053-4.645-0.372
				C151.428,213.48,151.632,213.204,151.863,212.956z M149.888,218.678c0.78-0.001,1.568,0.08,2.345,0.25
				c2.154,0.535,4.267,1.332,5.924,2.137c2.365,1.24,4.556,2.785,6.752,4.298c4.417,3.351,9.233,6.746,13.115,11.197
				c3.3,4.314,6.116,9.022,8.331,13.982c1.054,2.256,1.982,4.684,2.635,7.201c0.676,2.566,1.138,4.554,1.199,7.128
				c0.004,0.168-0.009,0.335-0.03,0.501c-0.017,0.05-0.035,0.1-0.052,0.15c-0.054,0.042-0.108,0.083-0.161,0.125
				c-0.062,0.017-0.166,0.049-0.27,0.067c0.011-0.008-0.151-0.01-0.211-0.005c-0.716-0.138-1.373-0.741-2.216-1.274
				c-1.428-1.057-2.908-2.282-4.554-3.582c-1.866-1.477-3.845-2.802-5.769-4.201c-2.066-1.5-4.064-3.092-6.092-4.643
				c-2.25-1.726-5.279-4.084-7.839-6.137c-1.837-1.694-4.495-4.114-5.653-5.644c-2.296-2.94-4.163-6.489-5.282-9.568
				c-0.879-2.336-1.546-4.746-1.892-7.221C149.923,222.011,149.788,220.326,149.888,218.678z M198.528,260.186
				c-0.928-0.955-1.831-2.476-2.624-3.957c-1.39-2.553-2.581-5.207-3.76-7.863c-2.069-4.99-4.734-12.402-3.994-16.202
				c0.049-0.039,0.119-0.09,0.163-0.125c1.084,0.638,2.68,3.51,3.803,5.512c2.478,4.762,4.245,9.574,5.574,15.022
				c0.794,2.909,1.262,5.539,1.592,8.284C199.06,260.69,198.851,260.487,198.528,260.186z M261.428,192.563
				c-1.743-0.359-3.512-0.641-5.201-1.214c-1.288-0.486-2.942-1.267-4.38-2.323c-2.108-1.483-4.566-4.319-6.471-6.714
				c-1.744-2.232-3.208-3.828-4.533-6.329c-0.359-0.749-0.696-1.363-0.773-1.813c0.025-0.014,0.058-0.017,0.09-0.021
				c0.012,0,0.025,0,0.038,0c0.034,0.009,0.068,0.018,0.101,0.026c0.252,0.094,0.49,0.223,0.723,0.356
				c2.932,1.813,5.149,3.853,7.894,5.994c2.105,1.678,4.097,3.492,6.072,5.32c1.893,1.742,3.751,3.524,5.433,5.473
				c0.389,0.426,0.76,0.847,1.117,1.267C261.502,192.578,261.465,192.57,261.428,192.563z M331.656,241.606
				c2.756,2.609,5.837,4.851,8.48,7.581c2.133,2.168,3.709,4.026,5.204,6.471c1.456,2.405,2.581,4.99,3.762,7.536
				c0.021,0.035,0.039,0.072,0.057,0.109c-0.976,0.195-1.57-0.109-2.818-0.705c-1.129-0.569-2.743-1.493-3.301-2
				c-1.372-1.152-2.485-2.571-3.597-3.965c-2.105-2.816-4.738-7.434-6.622-11.088c-0.977-1.866-2.047-3.816-3.073-5.753
				C330.377,240.404,331.011,241.011,331.656,241.606z M367.772,312.915c0.411,2.31,0.649,3.768,0.816,6.105
				c0.083,3.8-0.223,7.005-1.071,10.496c-0.039,0.159-0.085,0.317-0.131,0.474c-0.131-0.3-0.257-0.649-0.411-1.076
				c-0.537-1.451-1.234-4.397-1.318-5.334c-0.385-3.358-0.201-6.745-0.022-10.11c0.121-2.3,0.23-4.6,0.339-6.901
				C366.71,308.645,367.398,310.736,367.772,312.915z M364.964,262.319c0.606,1.83,1.103,3.702,1.497,5.588
				c0.273,1.534,0.408,3.465,0.463,5.392c0.064,2.31,0.095,4.624-0.038,6.932c-0.108,1.893-0.382,3.771-0.578,5.656
				c-0.579,4.666-0.904,9.357-1.178,14.05c-0.087-0.337-0.169-0.675-0.242-1.016c-1.199-5.701-1.117-12.021-1.16-18.264
				c0.008-7.568-0.551-15.113-0.965-22.665c-0.007-0.179-0.012-0.359-0.019-0.538C363.668,259.081,364.444,260.73,364.964,262.319z
				 M327.87,130.344c0.06,0.021,0.119,0.041,0.176,0.059c0.844,0.236,1.689,0.279,1.789,0.357c0.049,0.027,0.094,0.06,0.14,0.092
				c0.049,0.04,0.119,0.1,0.173,0.153c0.03,0.041,0.06,0.082,0.094,0.119c0.04,0.058,0.076,0.119,0.109,0.182
				c0.001,0.005,0.003,0.013,0.004,0.02c0.002,0.04,0.001,0.08-0.002,0.12c-0.008,0.046-0.014,0.093-0.024,0.139
				c-0.176,0.737-0.141,0.508-0.357,1.018c-0.623,1.079-1.111,1.726-1.589,2.322c-1.149,1.478-3.255,3.733-5.036,5.569
				c-3.765,3.697-7.204,7.5-11.263,10.073c-1.959,1.266-4.602,2.551-6.185,3.173c-1.38,0.418-3.05-0.219-3.036-0.264
				c0.695,0.234,1.504-0.213,2.181-0.432c1.514-0.612,2.995-1.325,4.383-2.188c1.486-0.891,2.808-2.007,4.075-3.182
				c1.213-1.04,2.461-2.036,3.672-3.078c1.269-1.085,2.533-2.175,3.828-3.229c1.242-0.968,2.414-2.023,3.419-3.238
				c1.401-1.749,2.663-3.695,3.233-5.884C327.793,131.65,328.042,130.945,327.87,130.344z M316.232,110.275
				c0.005,0.027,0.01,0.054,0.015,0.081c0.21,1.106,0.359,2.224,0.623,3.319c0.259,1.373,0.472,2.754,0.804,4.114
				c0.318,1.59,0.844,3.654,0.952,4.758c0.063,0.914,0.001,1.888-0.144,2.542c-0.34-0.165-0.699-0.343-1.067-0.532
				c-0.047-0.115-0.094-0.232-0.142-0.355c-0.469-1.149-0.683-2.378-0.865-3.599c-0.103-0.692-0.297-2.771-0.296-4.103
				C316.082,114.425,316.172,112.35,316.232,110.275z M316.98,126.455c0.397,0.423,0.999,0.668,1.53,0.529
				c0.37,0.131,0.714,0.255,1.024,0.371c-0.67,0.092-1.347,0.106-2.228,0.096c-1.272-0.052-2.372-0.343-3.898-0.469
				c-1.387-0.029-2.786-0.024-4.177,0.063c0.467-0.386,0.841-0.879,1.058-1.474c0.224-0.696,0.246-1.312,0.092-1.856
				c0.229,0.138,0.466,0.264,0.689,0.393c0.947,0.509,1.928,0.958,2.934,1.338C314.851,125.737,315.928,126.096,316.98,126.455z
				 M301.937,122.305c0.429-0.153,0.864-0.3,1.316-0.367c0.667-0.147,1.145-0.087,2.063-0.07c0.355-0.044,2.196,0.549,2.416,0.607
				c1.041,0.399,1.721,1.249,1.699,1.604c0.129,1.077-0.411,1.854-1.047,2.305c-1.126,0.683-2.356,0.677-3.873,0.84
				c-2.17,0.211-4.121,1.294-6.156,1.999c-1.464,0.57-3.286,1.406-4.621,1.919c-0.662-0.07-1.166-0.303-1.205-0.59
				c-0.074-0.787,0.843-2.079,1.459-2.804c1.917-2.477,4.312-3.88,7.273-5.191C301.006,122.639,301.758,122.382,301.937,122.305z
				 M310.375,122.307c0.014-0.078,0.029-0.156,0.052-0.231c0.009-0.036,0.021-0.073,0.034-0.108
				c0.006-0.019,0.014-0.037,0.021-0.056c0.029-0.033,0.059-0.067,0.093-0.095c0.026-0.017,0.058-0.036,0.091-0.052
				c0.039-0.023,0.08-0.043,0.121-0.063c0.035-0.011,0.073-0.021,0.107-0.03c0.039,0.006,0.052,0.003,0.047-0.002
				c0.011,0.003,0.022,0.009,0.033,0.013c0.018,0.009,0.041,0.02,0.073,0.035c0.477,0.276,0.349,0.211,0.654,0.48
				c0.902,0.878,1.904,1.636,2.957,2.321c-0.663-0.24-1.299-0.491-1.917-0.788C311.783,123.264,310.695,122.74,310.375,122.307z
				 M229.81,237.256c-0.057,0.511-0.111,1.022-0.165,1.533c-0.621,0.644-1.372,1.182-1.603,1.43
				c-0.821,0.598-1.08,0.722-1.982,0.663c0.045-0.001-0.069-0.023-0.173-0.054c-0.468-0.387-0.85-1.072-1.173-1.864
				c-0.49-1.1-0.694-2.9-0.765-4.586c-0.184-2.61-0.081-5.225,0.072-7.835c0.362-5.188,0.699-10.319,1.536-15.089
				c0.315-1.464,0.559-2.545,1.275-3.604c0.142-0.096,0.11-0.079,0.29-0.109c0.57,0.217,0.686,0.419,1.142,0.895
				c0.678,0.829,1.551,3.886,1.971,5.78c0.403,2.012,0.529,4.07,0.672,6.424C231.157,226.333,230.426,231.811,229.81,237.256z
				 M310.126,113.873c-1.973,0.958-3.535,1.866-5.324,2.458c-2.039,0.686-4.096,1.316-6.137,1.995
				c-0.984,0.392-2.023,0.933-2.663,1.192c-0.081,0.041-0.442,0.124-0.549,0.151c-0.025,0.002-0.053,0.003-0.081,0.004
				c-0.004-0.014-0.01-0.028-0.012-0.043c-0.001-0.016-0.002-0.033-0.002-0.052c-0.002-0.023,0.004-0.046,0.005-0.07
				c0.006-0.018,0.012-0.036,0.018-0.055c0.183-0.392,0.445-0.743,0.729-1.067c2.493-2.811,5.616-3.925,9.216-5.083
				c1.067-0.34,2.161-0.582,3.263-0.773c1.194-0.273,2.26-0.275,2.446,0.144c0.024,0.09,0.072,0.27,0.085,0.347
				c0.002,0.015,0.002,0.03,0.004,0.044c0.002,0.032,0.003,0.047,0.004,0.048c0.007,0.064,0.014,0.127,0.017,0.191
				C310.886,113.481,310.561,113.65,310.126,113.873z M292.563,127.81c0.781-2.148,2.835-3.92,5.388-5.108
				c2.594-1.415,5.586-2.383,8.391-2.561c0.873-0.065,1.749-0.021,2.621,0.044c0.687,0.034,1.86,0.248,1.878-0.752
				c0.033-1.155,0.115-1.728,0.532-2.918c0.286-0.809,0.628-1.645,0.751-2.5c0.128-0.109,0.252-0.224,0.364-0.354
				c0.566-0.629,0.735-1.489,0.885-2.297c0.168-0.9,0.313-1.804,0.425-2.713c0.003-0.259,0.095-0.545,0.1-0.81
				c0.009-0.001,0.017-0.003,0.025-0.004c-0.01-0.035-0.021-0.071-0.031-0.106c-0.009-0.092-0.031-0.18-0.077-0.262
				c-1.083-3.75-2.279-7.466-3.521-11.166c-1.261-3.724-2.506-7.457-4.042-11.079c-1.146-2.732-2.463-5.389-3.984-7.932
				c-1.119-1.932-2.331-3.82-3.831-5.482c-1.536-1.511-3.178-3.01-5.129-3.961c-3.251-1.602-7.068-1.879-10.535-0.852
				c-1.774,0.431-3.439,1.201-5.011,2.12c-1.587,0.923-3.07,2.034-4.208,3.488c-1.848,2.121-2.992,4.739-3.972,7.348
				c-0.926,2.441-1.717,4.928-2.459,7.43c-1.382,4.464-2.558,8.998-4.24,13.362c-13.619,35.349-52.252,36.259-50.217,61.926
				c0.117,1.478,0.305,2.963,0.676,4.4c0.639,2.11,1.64,4.093,2.728,6.004c1.982,3.047,4.495,5.711,6.755,8.551
				c2.548,3.127,4.962,6.654,7.118,10.463c1.545,2.6,2.379,5.023,3.282,8.088c1.276,4.637,1.515,9.19,1.568,14.231
				c0.043,7.044-0.594,13.386-2.817,20.089c-0.239,0.763-0.588,1.52-0.952,2.202c0.753-6.721,1.489-13.453,0.613-20.193
				c-0.177-1.817-0.616-3.594-1.152-5.335c-0.483-1.366-0.859-2.913-2.035-3.865c-1.511-1.244-2.553-0.514-3.133,1.125
				c-0.786,1.926-1.023,4.013-1.303,6.059c-0.508,4.593-0.925,9.197-1.14,13.814c-0.112,2.143-0.108,4.29,0.046,6.43
				c0.084,1.842,0.324,3.71,1.164,5.375c0.349,0.627,0.709,1.3,1.337,1.679c1.533,0.626,2.904-0.335,4.048-1.331
				c-0.246,2.387-0.473,4.775-0.686,7.165c-0.361,4.766-0.593,9.537-0.768,14.313c-0.29,4.579-0.578,9.167-1.179,13.716
				c-0.626,3.735-1.876,9.561-3.285,13.785c-1.011,3.195-2.142,5.777-3.397,8.645c-3.972,9.056-8.996,17.601-13.084,26.602
				c-1.333,2.924-2.423,5.948-3.427,8.999c-1.063,3.199-2.095,6.409-2.889,9.687c-1.289,5.066-2.362,10.202-2.681,15.43
				c-0.576,6.496-0.471,13.079,0.691,19.505c0.974,5.902,2.673,11.656,3.756,17.534c0.718,4.127,1.25,7.545,1.644,11.68
				c0.142,1.886,0.411,3.777,0.264,5.668c-0.034,0.256-0.075,0.511-0.15,0.758c-0.09,0.026-0.123,0.035-0.213,0.061
				c-0.283-0.241-0.53-0.516-0.736-0.828l0.084,0.109c-0.452-0.587-0.776-1.255-1.131-1.902c-3.687-6.891-7.198-14.52-10.03-21.31
				c-1.318-3.308-2.637-6.628-3.702-10.027c-1.377-4.399-2.398-9.446-2.899-13.546c-0.66-5.313-0.812-10.706-0.09-16.021
				c0.809-6.968,2.554-14.589,4.613-21.763c1.652-5.696,3.215-11.418,4.729-17.152c0.991-3.671,1.91-7.36,2.656-11.089
				c1.585-7.362,2.733-14.82,3.138-22.345c0.367-5.174,0.473-10.381-0.085-15.545c-0.002-0.017-0.004-0.033-0.006-0.05
				c0.25,0.041,0.505,0.047,0.764-0.005c0.469-0.094,0.994-0.141,1.347-0.5c0.765-0.678,1.396-1.539,1.816-2.471
				c0.68-1.696,0.795-3.546,0.866-5.353c0.094-2.217,0.016-4.438-0.036-6.656c-0.057-3.585-0.471-7.153-1.161-10.67
				c-0.672-3.8-1.625-7.557-2.967-11.178c-2.023-5.76-5.561-11.694-7.7-16.878c-3.897-9.763-6.556-19.62-6.343-29.975
				c0.054-3.211,0.601-5.771,1.091-9.051c1.315-7.796,3.537-15.413,4.664-23.242c0.709-4.099,0.765-8.271,0.788-12.42
				c0.061-4.717,0.011-9.907,0.619-14.112c0.494-3.153,1.563-6.444,2.811-8.907c2.161-4.247,4.811-8.226,7.579-12.099
				c1.984-2.845,3.806-5.061,6.287-7.663c2.633-2.84,5.438-5.531,8.462-7.952c2.684-2.239,6.255-4.58,9.602-6.641
				c5.394-3.454,10.993-6.557,16.639-9.574c2.82-1.493,5.597-3.072,8.498-4.405c3.235-1.558,6.251-2.677,9.814-3.981
				c7.987-2.908,17.503-3.482,24.795,0.356c3.232,1.809,5.602,4.173,8.375,6.869c1.323,1.323,2.447,2.823,3.626,4.271
				c1.395,1.678,2.872,3.74,4.299,5.873c1.201,1.886,2.605,3.638,3.75,5.559c1.873,3.469,3.404,6.493,4.467,10.049
				c0.519,1.784,1.143,3.546,1.459,5.382c0.044,0.245,0.082,0.524,0.117,0.828c0.06,2.659,0.039,5.321,0.183,7.978
				c0.021,0.213,0.044,0.427,0.066,0.64c-0.022,4.7-0.823,9.407-0.171,14.09c0.126,0.973,0.319,1.944,0.61,2.883
				c-0.396-0.23-0.77-0.459-1.096-0.679c-0.796-0.471-1.089-0.791-1.594-1.187c-0.449-0.385-0.881-0.816-1.438-1.041
				c-0.68-0.347-1.509,0.059-1.929,0.632c-0.126,0.265-0.255,0.584-0.283,0.897c-0.188-0.142-0.395-0.276-0.624-0.4
				c-1.322-0.621-2.801-1.001-4.267-0.975c-1.49-0.024-2.902,0.502-4.241,1.105c-1.813,0.812-3.511,1.862-5.051,3.117
				c-0.783,0.629-1.391,1.438-2.036,2.2c-0.194,0.246-0.39,0.5-0.576,0.761C292.512,127.945,292.535,127.881,292.563,127.81z
				 M293.983,132.201c1.322,0.03,2.613-0.446,3.842-0.906c1.179-0.458,2.349-0.937,3.533-1.383c2.779-1.097,5.206-1.716,7.979-1.804
				c1.497-0.088,3.007-0.14,4.503-0.024c0.886,0.087,2.628,0.48,3.98,0.452c0.807-0.008,1.617-0.065,2.413-0.2
				c0.368-0.081,0.797-0.115,1.093-0.352c0.617,0.245,1.25,0.477,1.923,0.706c-1.07-0.088-2.156-0.02-3.227,0.105
				c-2.32,0.325-4.659,0.455-6.985,0.709c-3.261,0.357-6.507,0.87-9.682,1.707c-2.077,0.528-4.098,1.246-6.117,1.959
				c-0.78,0.29-1.716,0.561-2.12,0.567c-0.636,0.053-1.687-0.2-2.109-0.439c-0.316-0.173-0.605-0.399-0.893-0.646
				C292.696,132.679,293.368,132.452,293.983,132.201z M299.099,150.42c-0.937-1.122-1.584-3.264-1.677-4.304
				c-0.165-1.43-0.17-2.916-0.772-4.251c-0.453-1.045-1.46-1.849-2.57-2.089c-1.444-0.295-2.883,0.42-3.987,1.302
				c-1.615,1.263-2.896,2.89-4.35,4.326c-2.61,2.714-4.836,5.013-7.868,6.841c-1.564,1.075-2.713,1.582-4.295,2.195
				c-2.027,0.958-4.335,1.333-5.54,0.749c-1.852-0.843-3.17-2.44-4.296-3.919c-0.862-1.145-1.732-2.29-2.468-3.522
				c-0.888-1.546-1.271-2.537-1.821-4.213c-0.391-1.217-0.637-2.486-1.159-3.657c-0.968-2.4-2.549-2.945-4.863-3.628
				c-2.37-0.848-4.947-1.443-6.833-2.395c-1.149-0.594-1.595-1.487-1.702-2.499c0.062-0.955,0.029-1.262,0.294-2.068
				c2.439,0.751,4.293,1.702,6.702,2.883c5.087,2.639,6.586,2.304,11.951,1.217c2.035-0.327,4.05-0.764,6.074-1.15
				c2.147-0.358,5.602-0.86,7.132-1.119c2.435-0.334,4.903-0.48,7.359-0.355c1.627,0.061,3.311,0.457,4.624,1.069
				c1.116,0.561,1.437,0.954,2.389,1.78c1.147,1.008,2.779,1.469,4.282,1.189c1.772-0.402,3.429-1.205,5.164-1.739
				c2.073-0.699,4.194-1.243,6.341-1.66c4.156-0.884,8.315-1.019,12.784-1.599c1.071-0.168,3.018-0.172,3.562-0.109
				c1.029,0.182,2.019,0.541,3.044,0.748c0.08,0.024,0.16,0.05,0.238,0.079c-0.004,0.001,0.004,0.006,0.032,0.011
				c-0.001,0-0.001-0.001-0.002-0.001c0.003,0.001,0.007,0.002,0.01,0.003c-0.004-0.001-0.004-0.001-0.008-0.002
				c0.006,0.003,0.012,0.006,0.017,0.011c0.013,0.005,0.019,0.008,0.024,0.011c0.008-0.006,0.012,0.003,0.011,0.029
				c0.005,0.014,0.009,0.025,0.012,0.035c0.002,0.024,0.005,0.048,0.005,0.072c-0.176,2.494-2.014,5.569-3.962,7.601
				c-1.747,1.832-3.861,3.264-5.742,4.953c-2.027,1.733-4.531,3.761-6.32,5.369c-2.463,1.79-4.994,3.446-8.968,4.317
				c-0.068-0.06-0.135-0.117-0.207-0.182C301.251,152.445,299.345,150.812,299.099,150.42z M328.396,171.338
				c0.694,1.991,1.742,3.827,2.771,5.659c1.567,2.819,3.325,5.534,5.275,8.104c2.159,2.783,4.776,5.052,6.53,7.685
				c1.68,2.382,3.116,4.939,4.937,7.22c1.081,1.405,2.474,2.512,3.676,3.804c1.465,1.595,2.722,4.063,3.72,6.42
				c2.628,5.73,4.075,13.042,5.21,19.708c1.069,7.211,0.808,15.31,0.899,23.232c-2.629-3.934-5.759-7.537-9.371-10.588
				c-1.771-1.409-3.621-2.722-5.538-3.926c-2.077-1.211-4.221-2.302-6.331-3.454c-2.538-1.387-5.028-2.863-7.642-4.105
				c-1.841-0.823-5.51-2.794-7.256-1.274c-0.89,1.043-0.386,2.487,0.074,3.644c-1.065-1.149-2.119-2.308-3.165-3.472
				c-1.523-1.789-3.053-3.573-4.594-5.347c-1.759-2.188-3.644-4.273-5.717-6.168c-3.116-2.697-6.817-4.912-10.875-5.798
				c-5.023-1.038-10.201-0.435-15.258-1.222c-1.937-0.228-5.777-1.551-8.225-2.544c-1.745-0.791-4.709-1.978-6.732-3.476
				c-0.326-0.25-0.638-0.517-0.928-0.808c-0.741-0.767-0.944-1.018-1.426-1.78c-0.851-1.493-1.276-2.888-1.999-4.755
				c-0.481-1.337-1.16-2.562-1.951-3.715c0.78,0.166,1.562,0.327,2.348,0.465c2.074,0.345,4.109,0.885,6.178,1.243
				c0.193,0.05,0.352,0.008,0.47-0.081c0.723,0.038,1.447,0.026,2.165-0.058c3.681-0.761,7.208-2.886,9.114-6.192
				c0.851-1.344,1.37-2.857,1.87-4.357c0.596-1.758,1.156-3.526,1.633-5.32c0.891-3.292,1.52-6.175,3.402-8.82
				c0.756-1.085,1.875-2.236,2.949-3.516c1.097-1.329,2.061-2.76,3.016-4.193c0.734-1.119,1.615-2.134,2.323-3.271
				c0.984-1.698,1.78-3.506,2.433-5.358c0.114,0.077,0.23,0.151,0.352,0.215c1.175,0.611,2.578,0.412,3.779-0.025
				c2.707-1.046,5.308-2.391,7.708-4.025c2.013-1.392,3.837-3.029,5.608-4.713c2.242-2.105,4.467-4.23,6.559-6.483
				c-0.061,0.449-0.074,0.904-0.068,1.357c0.026,0.322-0.056,0.672,0.055,0.978c0.018,0.047,0.041,0.087,0.067,0.124
				c-0.121,1.63-0.178,3.265-0.19,4.9c-0.006,2.251,0.075,4.501,0.152,6.751c0.027,2.283,0.089,4.565,0.263,6.842
				C326.833,164.416,327.112,167.965,328.396,171.338z M332.16,135.379c-0.13,0.84-0.466,1.43-0.953,2.537
				c-0.611,1.398-1.042,2.862-1.527,4.306c0.007-0.32,0.028-0.667,0.065-1c0.1-0.854,0.193-1.72,0.001-2.569
				c-0.008-0.044-0.012-0.059-0.014-0.064c-0.06-0.374-0.15-0.752-0.35-1.076c-0.139-0.218-0.302-0.379-0.477-0.485
				c0.498-0.624,0.962-1.274,1.401-1.943c0.536-0.85,1.134-1.783,1.366-2.779c0.083,0.284,0.16,0.592,0.236,0.948
				C332.019,133.837,332.1,134.939,332.16,135.379z M358.359,139.092c-2.077-0.363-3.495-0.676-4.628-2.206
				c-0.374-0.765-0.431-0.722-0.423-1.51c0.074-0.4-0.068-0.334,0.367-0.79c0.805-0.533,1.827-0.422,2.827,0.229
				c0.974,0.565,1.509,1.39,1.836,2.358c0.294,0.848,0.45,1.447,0.404,1.997C358.62,139.146,358.495,139.122,358.359,139.092z
				 M359.466,142.779c-1.22,0.256-2.309,0.881-3.33,1.575c-1.682,1.041-3.069,2.453-4.419,3.881
				c-1.585,1.566-3.191,3.112-4.702,4.752c-0.753,0.769-1.517,1.526-2.293,2.273c0.234-0.376,0.469-0.751,0.708-1.124
				c1.045-1.594,1.916-2.572,3.292-4.016c1.107-1.169,2.231-2.326,3.465-3.364c1.151-0.944,2.906-2.38,3.739-3.021
				c0.87-0.659,1.787-1.262,2.561-2.039c0.451-0.425,0.761-0.871,0.962-1.331c0.452,0.068,0.86,0.127,1.189,0.185
				c2.347,0.382,3.627,1.363,5.288,3.086C363.893,142.869,361.629,142.373,359.466,142.779z M303.318,370.561
				c-2.02-0.522-4.045-1.165-5.974-1.877c-4.043-1.481-7.271-2.704-11.027-4.744c-3.438-2.088-7.426-4.602-10.101-6.774
				c-3.081-2.666-5.771-5.744-8.493-8.766c-3.319-3.886-6.713-7.886-9.306-11.682c-3.457-5.254-6.639-10.713-9.226-16.451
				c-0.707-1.769-2.3-5.753-2.903-8.357c-1.299-4.768-2.155-9.64-3.01-14.504c-1.034-7.211-0.955-16.754,0.776-24.155
				c0.397-1.772,1.038-3.476,1.699-5.164c0.853-2.222,1.368-3.536,2.414-5.689c0.64-1.266,1.307-2.523,2.115-3.691
				c0.651-1.08,3.537-3.756,4.411-4.422c2.742-2.027,6.132-3.115,9.028-3.403c3.743-0.236,6.852,1.059,10.119,2.704
				c2.998,1.605,5.016,2.91,7.306,5.16c3.227,3.266,5.417,6.046,8.027,9.756c3.966,5.628,7.282,11.709,9.996,18.034
				c3.171,7.029,5.756,15.283,7.473,23.408c0.967,4.91,1.849,9.321,2.304,13.892c0.638,7.794,0.543,15.661-0.355,23.431
				C307.591,354.284,305.913,362.93,303.318,370.561z M339.29,353.924c-3.501-8.484-6.01-18.254-7.038-26.588
				c-1.047-9.407-0.64-18.904-0.236-28.339c0.216-3.194,0.458-6.387,0.794-9.57c0.346-3.654,0.906-7.698,2.061-10.502
				c1.82-4.164,4.296-5.839,7.248-3.09c3.124,2.552,4.15,5.852,5.589,9.627c1.306,3.741,2.416,7.562,3.143,11.459
				c1.728,9.61,2.212,20.166,1.065,30.346c-0.897,6.295-2.478,14.471-5.115,20.984c-1.359,3.477-3.138,7.021-5.485,10.245
				C340.524,356.849,339.81,355.268,339.29,353.924z M377.637,350.076c-0.927-0.946-1.581-1.868-2.376-3.114
				c-1.857-2.893-2.866-5.507-3.597-8.914c-0.308-1.652-0.719-3.538-0.309-4.339c0.004-0.005,0.008-0.01,0.012-0.015
				c0.027-0.011,0.065-0.029,0.104-0.048c0.047-0.005,0.165-0.031,0.227-0.049c0.107-0.002,0.243,0.001,0.243-0.006
				c1.026,0.17,1.422,0.694,2.298,1.353c1.652,1.491,2.225,2.701,2.855,4.724C378.031,342.768,378.03,346.709,377.637,350.076z"/>
		</g>
	</g>
</g>
</svg>
